<?xml version="1.0" standalone="no"?>
<!DOCTYPE svg PUBLIC "-//W3C//DTD SVG 20010904//EN"
 "http://www.w3.org/TR/2001/REC-SVG-20010904/DTD/svg10.dtd">
<svg version="1.0" xmlns="http://www.w3.org/2000/svg"
 width="300.000000pt" height="300.000000pt" viewBox="0 0 300.000000 300.000000"
 preserveAspectRatio="xMidYMid meet">
<metadata>
Created by potrace 1.10, written by Peter Selinger 2001-2011
</metadata>
<g transform="translate(0.000000,300.000000) scale(0.100000,-0.100000)"
fill="#000000" stroke="none">
<path d="M152 2930 l3 -75 73 -3 72 -3 0 76 c0 47 -4 75 -11 75 -7 0 -9 -23
-6 -65 2 -46 0 -66 -9 -69 -7 -3 -15 3 -17 12 -4 13 -5 13 -6 2 -1 -12 -11
-14 -44 -12 l-44 4 -2 61 c-1 34 -4 64 -7 66 -3 3 -4 -28 -2 -69z"/>
<path d="M450 2950 c0 -29 3 -50 7 -46 7 7 5 87 -3 95 -2 2 -4 -20 -4 -49z"/>
<path d="M582 2935 l4 -65 -58 0 c-32 0 -58 4 -58 10 0 6 -4 10 -10 10 -5 0
-10 -9 -10 -20 0 -18 7 -20 75 -20 l75 0 0 75 c0 47 -4 75 -11 75 -7 0 -9 -23
-7 -65z"/>
<path d="M751 2938 c1 -50 3 -57 9 -33 11 45 11 95 0 95 -6 0 -9 -27 -9 -62z"/>
<path d="M1782 2930 c4 -91 18 -91 18 0 0 42 -4 70 -10 70 -7 0 -10 -26 -8
-70z"/>
<path d="M1950 2925 l0 -75 75 0 75 0 0 77 c0 90 -9 94 -12 5 l-2 -62 -58 0
c-64 0 -62 -3 -58 78 1 32 -2 52 -9 52 -7 0 -11 -27 -11 -75z"/>
<path d="M2252 2928 l3 -73 73 -3 72 -3 0 -74 0 -75 -76 0 -75 0 2 -75 2 -75
73 0 74 0 0 -75 0 -75 -75 0 -76 0 3 -72 3 -73 73 -3 72 -3 0 -74 0 -75 -75 0
-76 0 3 -72 3 -73 73 -3 72 -3 0 -74 0 -75 -75 0 -74 0 -3 73 -3 72 -72 3 -73
3 0 -76 0 -75 -75 0 -75 0 0 70 c0 54 -4 72 -15 77 -9 3 -19 2 -23 -2 -4 -4
-1 -10 6 -12 6 -3 10 -9 6 -14 -3 -5 -1 -9 4 -9 5 0 9 -19 10 -41 1 -30 -3
-46 -16 -55 -16 -12 -15 -13 6 -14 21 0 22 -4 22 -75 l0 -75 75 0 75 0 0 75 0
75 75 0 74 0 3 -72 3 -73 73 -3 72 -3 0 -71 c0 -39 3 -68 6 -65 4 3 6 29 6 56
-1 40 2 53 17 61 25 13 101 8 101 -6 0 -6 3 -25 6 -42 5 -24 2 -31 -12 -35
-18 -4 -18 -5 -1 -6 10 0 15 -5 12 -11 -3 -5 -1 -10 5 -10 7 0 10 22 8 63 l-3
62 -72 3 -73 3 0 74 0 75 75 0 74 0 3 -72 3 -73 73 -3 72 -3 0 76 0 75 75 0
75 0 0 -52 c0 -28 3 -48 7 -44 4 4 6 22 4 41 -3 39 4 42 94 48 35 2 27 4 -27
5 l-78 2 0 75 0 76 -72 -3 -73 -3 -3 -72 -3 -73 -74 0 -74 0 -3 73 -3 72 -72
3 -73 3 0 74 0 75 76 0 75 0 -2 75 -2 75 -73 0 -74 0 0 75 0 75 75 0 76 0 -3
73 -3 72 -72 3 -73 3 0 74 0 75 75 0 76 0 -3 73 -3 72 -72 3 -73 3 0 76 c0 91
-8 94 -11 5 l-2 -62 -59 0 c-64 0 -62 -3 -58 78 1 33 -3 52 -10 52 -7 0 -10
-24 -8 -72z m274 -97 c1 -1 4 -19 6 -41 3 -31 0 -40 -12 -41 -12 0 -11 -2 2
-7 10 -4 14 -12 10 -17 -9 -13 -38 -16 -83 -9 -35 5 -36 6 -38 54 -2 58 14 72
74 66 22 -3 41 -5 41 -5z m-147 -155 c17 -21 11 -96 -9 -106 -9 -5 -35 -8 -58
-7 l-42 2 0 61 0 61 49 2 c31 1 52 -4 60 -13z m131 -148 c0 -5 5 -6 10 -3 6 4
10 -16 10 -52 0 -58 0 -59 -27 -57 -16 1 -41 3 -58 3 -30 1 -30 1 -27 55 4 58
9 63 65 63 15 0 27 -4 27 -9z m-128 -204 c-3 -46 -7 -55 -25 -58 -39 -7 -67
-5 -67 5 0 6 -4 7 -10 4 -6 -4 -10 15 -10 49 0 60 6 65 80 58 l35 -4 -3 -54z
m148 -96 c3 -3 3 -31 2 -60 l-4 -55 -48 -2 c-40 -1 -51 2 -60 19 -17 33 -9 91
15 100 23 10 87 8 95 -2z m-174 -143 c28 -5 31 -9 32 -46 3 -65 -11 -81 -66
-77 -50 3 -60 13 -61 61 -1 19 4 27 17 28 15 1 16 2 0 6 -9 2 -15 10 -12 16 5
14 45 19 90 12z m-155 -154 c34 -1 35 -2 37 -41 4 -64 -10 -81 -68 -79 -47 2
-50 4 -55 33 -12 63 1 97 34 91 9 -2 32 -4 52 -4z m330 -8 c0 -5 2 -17 5 -28
2 -11 2 -33 -1 -50 -5 -28 -8 -30 -55 -33 -58 -3 -72 13 -68 78 l2 40 58 0
c32 0 58 -3 59 -7z m301 -5 c3 -7 3 -34 0 -59 l-4 -46 -48 -2 c-57 -2 -67 10
-68 77 l-1 42 59 0 c37 0 59 -4 62 -12z m-754 -140 c6 -8 10 -35 9 -61 l-1
-47 -57 0 c-64 0 -67 4 -61 71 l4 46 47 2 c30 1 52 -3 59 -11z m298 1 c10 -8
14 -28 13 -61 l-3 -48 -58 0 c-39 0 -58 4 -59 13 -4 32 3 92 11 97 19 11 82
10 96 -1z m305 -23 c1 -17 2 -43 3 -58 1 -15 -4 -30 -11 -32 -7 -3 -14 2 -14
12 -1 13 -2 14 -5 2 -3 -11 -16 -14 -48 -12 l-43 4 -2 48 c-2 57 12 70 77 68
40 -1 42 -3 43 -32z"/>
<path d="M2552 2930 l3 -75 73 -3 72 -3 0 76 c0 47 -4 75 -11 75 -7 0 -9 -23
-6 -65 2 -46 0 -66 -9 -69 -7 -3 -15 3 -17 12 -4 13 -5 13 -6 2 -1 -12 -11
-14 -44 -12 l-44 4 -2 61 c-1 34 -4 64 -7 66 -3 3 -4 -28 -2 -69z"/>
<path d="M2850 2950 c0 -29 3 -50 7 -46 7 7 5 87 -3 95 -2 2 -4 -20 -4 -49z"/>
<path d="M859 2943 c-67 -61 -108 -167 -133 -348 l-13 -100 39 -38 c96 -92
290 -147 519 -147 188 0 360 40 467 110 90 57 91 62 76 178 -24 171 -65 281
-128 342 -32 30 -43 35 -101 38 -74 5 -121 -11 -231 -79 -35 -21 -73 -39 -83
-39 -10 0 -49 18 -86 41 -104 63 -149 79 -221 79 -60 0 -67 -2 -105 -37z m211
-26 c25 -12 74 -38 110 -59 35 -21 76 -38 89 -38 14 0 55 18 92 40 37 22 79
44 94 50 16 6 23 14 19 22 -4 7 -3 8 5 4 6 -4 26 -3 44 3 62 20 151 -20 177
-81 7 -16 16 -28 21 -28 4 0 8 -8 7 -17 0 -10 7 -43 16 -73 9 -30 16 -65 16
-77 0 -13 3 -23 8 -23 4 0 7 -31 7 -68 0 -75 -9 -93 -59 -119 -17 -9 -33 -19
-36 -23 -9 -13 -162 -57 -240 -69 -41 -7 -128 -11 -195 -10 -110 1 -154 7
-285 41 -25 7 -47 11 -49 9 -2 -1 -7 1 -10 6 -3 4 -24 17 -46 28 -22 11 -54
32 -71 47 -30 27 -31 29 -22 80 35 207 60 282 113 341 45 51 107 55 195 14z"/>
<path d="M2850 2870 c0 -18 7 -20 75 -20 43 0 75 4 75 10 0 6 -28 10 -65 10
-37 0 -65 4 -65 10 0 6 -4 10 -10 10 -5 0 -10 -9 -10 -20z"/>
<path d="M1 2846 c2 -3 28 -6 57 -7 65 -3 68 -6 74 -51 3 -28 0 -38 -12 -42
-12 -3 -12 -4 2 -5 10 0 15 -7 13 -14 -3 -7 -29 -13 -68 -15 -88 -5 -84 -12 7
-12 l77 0 -3 73 -3 72 -75 3 c-41 2 -72 1 -69 -2z"/>
<path d="M307 2844 c-4 -4 -7 -38 -7 -76 l0 -69 73 3 72 3 0 70 0 70 -65 3
c-36 2 -69 0 -73 -4z m126 -63 c3 -30 4 -57 1 -60 -5 -6 -107 -2 -113 5 -10 9
0 99 12 106 6 4 31 7 53 6 l42 -2 5 -55z"/>
<path d="M604 2836 c-3 -7 -4 -40 -2 -72 l3 -59 50 -1 c41 -1 43 0 10 3 -22 3
-43 10 -47 16 -10 16 -10 40 0 34 4 -3 5 15 3 40 l-3 45 61 -4 c34 -1 61 0 61
5 0 4 -29 7 -65 7 -46 0 -67 -4 -71 -14z"/>
<path d="M1806 2842 c-3 -5 15 -7 40 -4 24 2 56 1 69 -2 22 -6 25 -12 25 -56
0 -29 -5 -50 -11 -50 -5 0 -7 -5 -3 -12 4 -6 3 -9 -2 -6 -5 3 -27 2 -49 -2
-39 -7 -38 -8 18 -9 l58 -1 -3 73 -3 72 -67 3 c-36 2 -69 -1 -72 -6z"/>
<path d="M2107 2843 c-11 -10 -8 -93 2 -93 6 0 11 19 13 42 3 42 3 42 46 46
58 5 73 -9 71 -69 l-2 -49 -41 -1 c-54 -2 -70 1 -74 12 -6 16 -20 9 -18 -8 2
-15 14 -18 72 -18 l69 0 3 73 3 72 -69 0 c-38 0 -72 -3 -75 -7z"/>
<path d="M2707 2844 c-4 -4 -7 -38 -7 -76 l0 -69 73 3 72 3 0 70 0 70 -65 3
c-36 2 -69 0 -73 -4z m126 -63 c3 -30 4 -57 1 -60 -5 -6 -107 -2 -113 5 -10 9
0 99 12 106 6 4 31 7 53 6 l42 -2 5 -55z"/>
<path d="M154 2686 c-3 -7 -4 -40 -2 -72 l3 -59 70 0 70 0 0 70 c0 65 -2 70
-22 73 -13 2 -23 -1 -23 -7 0 -6 6 -8 14 -5 26 10 34 -92 10 -116 -5 -5 -31
-6 -59 -2 l-49 7 3 50 c1 28 4 52 6 54 2 2 19 7 37 11 33 8 33 8 -10 9 -27 1
-44 -4 -48 -13z"/>
<path d="M457 2694 c-10 -10 -9 -116 2 -132 5 -9 27 -12 72 -10 l64 3 0 70 0
70 -65 3 c-36 2 -69 0 -73 -4z m123 -62 c3 -29 2 -56 -2 -60 -4 -4 -31 -5 -60
-2 l-52 5 -4 43 c-6 67 0 74 60 70 l53 -3 5 -53z"/>
<path d="M1954 2686 c-3 -7 -4 -40 -2 -72 l3 -59 70 0 70 0 1 73 2 72 -69 0
c-50 0 -71 -4 -75 -14z m126 -15 c5 -11 9 -37 8 -59 l-1 -40 -54 -4 c-30 -2
-57 -1 -59 1 -2 2 -4 30 -4 61 l0 57 50 2 c39 1 51 -2 60 -18z"/>
<path d="M2554 2686 c-3 -7 -4 -40 -2 -72 l3 -59 70 0 70 0 0 70 c0 65 -2 70
-22 73 -13 2 -23 -1 -23 -7 0 -6 6 -8 14 -5 26 10 34 -92 10 -116 -5 -5 -31
-6 -59 -2 l-49 7 3 50 c1 28 4 52 6 54 2 2 19 7 37 11 33 8 33 8 -10 9 -27 1
-44 -4 -48 -13z"/>
<path d="M2857 2693 c-9 -8 -9 -106 -1 -127 5 -12 21 -16 75 -16 89 0 90 18 2
22 l-68 3 0 55 0 55 70 6 70 5 -71 2 c-39 1 -74 -1 -77 -5z"/>
<path d="M1 2546 c3 -3 29 -6 57 -7 29 -1 52 -6 52 -11 0 -5 4 -6 10 -3 6 4
10 -16 10 -52 l0 -58 -65 0 c-36 0 -65 -3 -65 -7 0 -5 34 -8 75 -8 l76 0 -3
73 -3 72 -75 3 c-41 2 -72 1 -69 -2z"/>
<path d="M304 2536 c-3 -7 -4 -40 -2 -72 l3 -59 56 -3 c49 -3 57 0 67 20 l12
23 -6 -22 c-3 -13 -1 -23 5 -23 7 0 11 27 11 69 0 79 -2 81 -86 81 -37 0 -56
-4 -60 -14z m126 -48 c0 -64 -11 -75 -66 -69 l-46 6 -2 52 -1 52 45 3 c65 4
70 1 70 -44z"/>
<path d="M602 2526 c1 -14 6 -22 10 -20 5 3 6 9 3 14 -7 11 31 23 45 15 5 -3
10 -1 10 4 0 6 -16 11 -35 11 -31 0 -35 -3 -33 -24z"/>
<path d="M1898 2539 c19 -6 37 -19 42 -32 8 -20 9 -19 9 11 1 31 0 32 -41 31
l-43 -1 33 -9z"/>
<path d="M2102 2478 l3 -73 70 0 70 0 0 70 0 70 -73 3 -73 3 3 -73z m130 39
c4 -7 8 -31 8 -53 l0 -41 -52 -5 c-29 -3 -58 -4 -63 -1 -14 5 -13 105 0 116
14 10 98 -2 107 -16z"/>
<path d="M2704 2536 c-3 -7 -4 -40 -2 -72 l3 -59 70 0 70 0 3 64 c2 45 -1 67
-10 72 -22 15 -128 11 -134 -5z m126 -60 c0 -29 -2 -55 -4 -57 -3 -3 -28 -2
-57 1 l-51 5 -2 52 -1 52 45 3 c67 4 70 2 70 -56z"/>
<path d="M1892 2431 c-126 -197 -640 -282 -992 -164 -117 39 -228 114 -266
179 -11 18 -12 18 -50 -1 -21 -11 -62 -42 -90 -70 -82 -78 -91 -148 -29 -229
31 -40 115 -101 165 -117 45 -16 50 -24 50 -84 1 -156 90 -390 195 -516 122
-146 310 -213 496 -179 177 32 344 193 425 406 34 91 64 226 64 294 l0 55 71
34 c133 62 202 156 178 246 -12 45 -89 126 -155 161 l-39 22 -23 -37z m-1243
-60 c37 -39 121 -98 121 -84 0 5 4 3 8 -3 34 -52 301 -114 492 -114 109 0 272
22 326 45 20 8 39 13 43 11 17 -11 190 84 243 133 l58 53 28 -21 c16 -11 46
-39 66 -62 35 -38 37 -44 32 -88 -8 -69 -9 -71 -18 -65 -4 3 -8 -1 -8 -9 0
-16 -64 -62 -124 -90 -68 -31 -88 -61 -98 -151 -17 -156 -74 -318 -150 -433
-35 -52 -127 -132 -181 -158 -159 -77 -295 -74 -446 7 -168 91 -289 313 -319
584 -8 64 -14 86 -34 107 -14 15 -30 27 -36 27 -9 0 -58 28 -98 57 -5 5 -19
13 -30 19 -10 6 -29 32 -42 57 -21 41 -22 51 -12 82 13 38 57 87 105 117 16
10 32 18 34 18 3 0 21 -17 40 -39z"/>
<path d="M154 2387 c-3 -8 -4 -41 -2 -73 l3 -59 73 -3 73 -3 -3 73 -3 73 -68
3 c-51 2 -69 -1 -73 -11z m121 -5 c13 -9 13 -105 0 -114 -14 -11 -98 2 -108
16 -4 6 -6 29 -5 51 3 43 -1 41 93 53 6 1 15 -2 20 -6z"/>
<path d="M2554 2387 c-3 -8 -4 -41 -2 -73 l3 -59 73 -3 73 -3 -3 73 -3 73 -68
3 c-51 2 -69 -1 -73 -11z m121 -5 c13 -9 13 -105 0 -114 -14 -11 -98 2 -108
16 -4 6 -6 29 -5 51 3 43 -1 41 93 53 6 1 15 -2 20 -6z"/>
<path d="M2850 2325 l0 -75 75 0 c93 0 99 18 8 22 -63 3 -68 5 -71 27 -2 13
-1 38 2 55 l6 31 65 -3 c42 -3 65 0 65 7 0 7 -28 11 -75 11 l-75 0 0 -75z"/>
<path d="M1 2246 c2 -2 31 -6 64 -8 33 -1 62 -6 65 -10 3 -3 3 -31 2 -61 l-4
-54 -61 -2 c-89 -3 -84 -11 7 -11 l77 0 -2 75 -2 75 -75 0 c-41 0 -73 -2 -71
-4z"/>
<path d="M305 2240 c-3 -5 -5 -39 -4 -75 l2 -65 69 0 c37 0 68 4 68 8 0 5 -22
7 -49 5 -62 -5 -82 12 -79 71 1 41 3 44 37 53 l36 10 -37 2 c-20 0 -40 -3 -43
-9z"/>
<path d="M2195 2236 c36 -11 40 -16 43 -49 4 -50 -12 -75 -51 -80 -21 -3 -17
-4 13 -3 l45 1 0 70 0 70 -45 2 -45 2 40 -13z"/>
<path d="M2705 2241 c-3 -6 -5 -40 -4 -76 l2 -66 71 3 71 3 0 70 0 70 -67 3
c-38 2 -69 -2 -73 -7z m121 -14 c5 -3 8 -30 6 -59 l-4 -55 -43 -1 c-57 -3 -76
16 -73 73 1 36 5 45 22 48 27 5 80 2 92 -6z"/>
<path d="M154 2087 c-3 -8 -4 -41 -2 -73 l3 -59 70 0 70 0 3 48 c2 28 -1 47
-7 47 -6 0 -11 -20 -11 -43 l0 -44 -44 -1 c-59 -3 -78 17 -74 72 3 39 5 41 42
47 43 7 76 2 76 -12 0 -5 4 -9 9 -9 5 0 8 8 7 18 -2 14 -15 18 -70 20 -50 2
-68 -1 -72 -11z"/>
<path d="M2554 2087 c-3 -8 -4 -41 -2 -73 l3 -59 70 0 70 0 3 48 c2 28 -1 47
-7 47 -6 0 -11 -20 -11 -43 l0 -44 -44 -1 c-59 -3 -78 17 -74 72 3 39 5 41 42
47 43 7 76 2 76 -12 0 -5 4 -9 9 -9 5 0 8 8 7 18 -2 14 -15 18 -70 20 -50 2
-68 -1 -72 -11z"/>
<path d="M2852 2028 l3 -73 73 -3 c49 -2 72 1 72 8 0 8 -20 11 -57 10 -32 -1
-64 -2 -70 -1 -16 1 -18 101 -2 101 5 0 8 3 6 8 -3 4 24 5 59 4 41 -3 64 0 64
7 0 7 -28 11 -75 11 l-76 0 3 -72z"/>
<path d="M452 2025 l3 -70 68 -3 c54 -2 68 0 73 13 4 9 1 22 -5 28 -7 7 -12 8
-11 2 5 -25 -3 -31 -41 -33 -72 -5 -81 2 -78 64 2 29 -1 57 -5 61 -4 4 -6 -24
-4 -62z"/>
<path d="M2092 2022 c-4 -50 -19 -63 -73 -60 -45 3 -54 8 -50 31 0 4 -4 7 -10
7 -6 0 -9 -10 -7 -22 3 -21 9 -23 71 -26 75 -3 81 2 74 60 -2 20 -4 24 -5 10z"/>
<path d="M0 1940 c0 -6 27 -10 65 -10 36 0 65 -3 66 -7 0 -5 2 -17 5 -28 2
-11 2 -34 -1 -50 -5 -29 -7 -30 -67 -33 -89 -4 -85 -12 5 -12 l76 0 3 -72 3
-73 73 -3 72 -3 0 76 0 75 75 0 75 0 0 -52 c0 -28 3 -48 7 -44 4 4 6 22 5 40
-4 37 11 46 81 46 35 0 37 -2 38 -32 0 -18 2 -45 3 -60 2 -28 1 -28 -56 -28
-32 0 -58 4 -58 10 0 6 -4 10 -10 10 -5 0 -10 -9 -10 -20 0 -18 7 -20 75 -20
l75 0 0 75 c0 75 0 75 28 76 16 1 20 3 10 6 -12 3 -18 15 -19 36 0 18 -2 44
-3 60 -1 15 2 27 6 27 4 0 8 4 8 10 0 5 -7 7 -15 4 -11 -5 -15 -23 -15 -75 l0
-69 -75 0 -75 0 0 75 0 76 -72 -3 -73 -3 -3 -72 -3 -73 -74 0 -74 0 -3 73 -3
72 -72 3 c-46 2 -73 -1 -73 -8z m432 -22 c3 -7 3 -34 0 -59 l-4 -46 -48 -2
c-57 -2 -67 10 -68 77 l-1 42 59 0 c37 0 59 -4 62 -12z m-151 -162 c1 -17 2
-43 3 -58 1 -15 -4 -30 -11 -32 -7 -3 -14 2 -14 12 -1 13 -2 14 -5 2 -3 -11
-16 -14 -48 -12 l-43 4 -2 48 c-2 57 12 70 77 68 40 -1 42 -3 43 -32z"/>
<path d="M2850 1670 c0 -18 7 -20 75 -20 43 0 75 4 75 10 0 6 -28 10 -65 10
-37 0 -65 4 -65 10 0 6 -4 10 -10 10 -5 0 -10 -9 -10 -20z"/>
<path d="M1 1646 c2 -3 28 -6 57 -7 65 -3 68 -6 74 -51 3 -28 0 -38 -12 -42
-12 -3 -12 -4 2 -5 10 0 15 -7 13 -14 -3 -7 -29 -13 -68 -15 -88 -5 -84 -12 7
-12 l77 0 -3 73 -3 72 -75 3 c-41 2 -72 1 -69 -2z"/>
<path d="M307 1644 c-4 -4 -7 -38 -7 -76 l0 -69 73 3 72 3 0 70 0 70 -65 3
c-36 2 -69 0 -73 -4z m126 -63 c3 -30 4 -57 1 -60 -5 -6 -107 -2 -113 5 -10 9
0 99 12 106 6 4 31 7 53 6 l42 -2 5 -55z"/>
<path d="M604 1636 c-3 -7 -4 -40 -2 -72 l3 -59 68 -3 c54 -2 68 0 73 13 9 23
-3 30 -21 11 -22 -22 -101 -22 -109 0 -8 21 -8 36 2 31 4 -3 5 14 4 38 l-4 44
44 4 43 4 -48 1 c-32 1 -49 -2 -53 -12z"/>
<path d="M1865 1644 c75 -11 75 -10 75 -64 0 -29 -5 -50 -11 -50 -5 0 -8 -3
-5 -8 2 -4 -20 -9 -49 -10 -53 -3 -54 -3 -64 30 l-10 33 2 -35 2 -35 73 -3 73
-3 -3 73 -3 73 -55 1 c-30 1 -41 0 -25 -2z"/>
<path d="M2107 1643 c-11 -10 -8 -93 2 -93 6 0 11 19 13 42 3 42 3 42 46 46
58 5 73 -9 71 -69 -2 -45 -4 -49 -28 -51 -51 -3 -86 1 -89 12 -6 17 -20 11
-18 -7 2 -15 14 -18 72 -18 l69 0 3 73 3 72 -69 0 c-38 0 -72 -3 -75 -7z"/>
<path d="M2707 1644 c-4 -4 -7 -38 -7 -76 l0 -69 73 3 72 3 0 70 0 70 -65 3
c-36 2 -69 0 -73 -4z m126 -63 c3 -30 2 -58 -3 -61 -11 -7 -99 -4 -107 4 -11
11 -3 100 10 108 6 4 31 7 53 6 l42 -2 5 -55z"/>
<path d="M154 1486 c-3 -7 -4 -40 -2 -72 l3 -59 70 0 70 0 0 70 c0 65 -2 70
-22 73 -13 2 -23 -1 -23 -7 0 -6 6 -8 14 -5 26 10 34 -92 10 -116 -5 -5 -31
-6 -59 -2 l-49 7 3 50 c1 28 4 52 6 54 2 2 19 7 37 11 33 8 33 8 -10 9 -27 1
-44 -4 -48 -13z"/>
<path d="M457 1494 c-10 -10 -9 -116 2 -132 5 -9 27 -12 72 -10 l64 3 0 70 0
70 -65 3 c-36 2 -69 0 -73 -4z m123 -62 c3 -29 2 -56 -2 -60 -4 -4 -31 -5 -60
-2 l-52 5 -4 43 c-6 67 0 74 60 70 l53 -3 5 -53z"/>
<path d="M752 1428 l3 -73 70 -2 c78 -2 78 4 0 9 l-50 3 -3 68 c-2 37 -7 67
-13 67 -6 0 -9 -29 -7 -72z"/>
<path d="M1767 1493 c13 -9 20 -103 10 -120 -4 -7 -30 -11 -62 -10 -30 2 -55
0 -55 -4 0 -4 30 -6 68 -5 l67 1 0 70 c0 62 -2 70 -20 73 -12 2 -16 0 -8 -5z"/>
<path d="M1954 1486 c-3 -7 -4 -40 -2 -72 l3 -59 73 -3 c67 -3 72 -1 72 18 0
11 -5 20 -11 20 -5 0 -8 -4 -5 -9 6 -9 -101 -20 -110 -12 -2 2 -4 30 -4 61 l0
57 49 2 c54 1 61 -4 72 -59 6 -31 7 -29 6 18 l-1 52 -68 0 c-49 0 -70 -4 -74
-14z"/>
<path d="M2253 1480 c1 -23 17 -28 17 -6 0 10 13 16 38 19 34 3 34 4 -10 5
-41 2 -47 0 -45 -18z"/>
<path d="M2857 1493 c-11 -10 -8 -86 3 -103 7 -11 8 -6 4 17 -4 18 -4 43 0 57
6 23 11 25 74 29 l67 3 -71 2 c-39 1 -74 -1 -77 -5z"/>
<path d="M2383 1466 c-182 -44 -337 -208 -373 -394 -24 -119 4 -260 69 -357
17 -25 31 -49 31 -52 0 -16 -79 -90 -111 -104 -20 -9 -47 -32 -60 -50 -13 -19
-61 -81 -107 -138 -109 -135 -122 -157 -122 -210 0 -80 60 -143 140 -145 66
-1 93 19 201 156 134 169 159 206 159 236 0 34 70 124 90 116 92 -40 204 -53
295 -34 204 41 379 223 392 409 4 50 3 63 -6 55 -7 -6 -13 -21 -14 -33 -1 -11
-4 -21 -7 -21 -4 0 -12 -22 -19 -50 -15 -59 -73 -150 -127 -202 -56 -53 -163
-108 -223 -115 -28 -3 -51 -9 -51 -13 0 -10 -48 -5 -140 15 -109 23 -130 26
-130 13 0 -6 -3 -8 -6 -5 -13 13 -75 -70 -89 -119 -14 -45 -109 -187 -137
-205 -6 -4 -7 -12 -3 -19 5 -8 4 -11 -3 -6 -5 3 -25 -13 -43 -36 -45 -59 -89
-98 -111 -99 -10 -1 -25 -2 -33 -3 -27 -2 -74 38 -89 74 -17 43 -5 79 49 143
60 71 175 219 175 226 0 3 19 15 41 26 23 10 59 40 80 65 34 39 39 50 35 85
-2 21 -9 41 -15 43 -6 2 -9 8 -5 13 3 5 1 9 -4 9 -11 0 -30 39 -49 100 -35
111 -25 246 25 342 37 71 145 177 216 212 74 36 196 53 276 38 69 -12 174 -61
216 -99 49 -45 109 -134 132 -193 28 -74 35 -93 37 -107 2 -6 8 -19 14 -30 19
-33 13 79 -8 140 -83 239 -343 382 -588 323z"/>
<path d="M2378 1351 c-70 -23 -130 -59 -122 -73 4 -6 2 -8 -4 -5 -17 11 -89
-80 -113 -142 -43 -108 -32 -270 23 -340 10 -13 18 -29 18 -35 0 -20 57 -69
71 -61 8 6 10 4 5 -4 -5 -7 0 -18 10 -26 30 -23 88 -49 102 -47 6 2 12 -1 12
-6 0 -12 20 -14 125 -16 82 -1 96 2 157 31 132 62 215 178 225 317 6 75 -9
151 -44 223 -17 36 -94 123 -107 123 -6 0 -19 9 -31 20 -60 56 -217 76 -327
41z m265 -50 c70 -34 142 -104 174 -169 25 -51 28 -68 28 -152 -1 -75 -5 -105
-22 -142 -30 -66 -105 -143 -172 -175 -49 -25 -68 -28 -151 -28 -83 0 -102 3
-151 28 -67 32 -142 109 -172 175 -31 67 -31 217 0 284 40 87 127 165 216 194
64 21 192 13 250 -15z"/>
<path d="M2401 1238 l-1 -38 -60 0 c-33 0 -60 -4 -60 -10 0 -5 3 -9 8 -9 4 1
28 1 55 0 l47 -1 0 -44 c0 -27 -6 -51 -15 -60 -17 -16 -85 -19 -85 -4 0 5 -4
6 -10 3 -13 -8 -24 39 -16 78 4 25 3 28 -5 14 -5 -9 -9 -39 -7 -65 l3 -47 73
-3 72 -3 0 -74 0 -75 -75 0 -75 0 1 -52 c1 -29 4 -41 6 -25 3 17 11 27 21 28
16 0 16 1 0 7 -42 17 19 38 78 27 28 -5 31 -9 32 -46 3 -60 -12 -82 -53 -77
-19 2 -31 0 -29 -4 3 -4 25 -8 50 -8 43 0 44 -1 44 -32 0 -24 3 -29 9 -18 6 8
7 18 5 22 -3 4 22 8 55 8 51 0 61 -3 66 -20 3 -11 3 -25 -1 -32 -5 -10 -4 -10
5 -2 7 6 11 24 9 40 -3 29 -4 29 -75 32 l-73 3 0 74 0 75 76 0 75 0 -2 75 -2
75 -73 0 -74 0 0 75 0 75 75 0 75 0 0 35 c0 19 -4 35 -10 35 -5 0 -10 -13 -10
-28 0 -24 -4 -27 -27 -26 -16 1 -42 3 -60 3 -27 1 -32 5 -36 29 -3 22 -4 20
-6 -10z m129 -210 c3 -3 3 -31 2 -60 l-4 -55 -48 -2 c-40 -1 -51 2 -60 19 -17
33 -9 91 15 100 23 10 87 8 95 -2z"/>
<path d="M2554 1187 c-3 -8 -4 -41 -2 -73 l3 -59 73 -3 73 -3 -3 73 -3 73 -68
3 c-51 2 -69 -1 -73 -11z m125 -7 c11 0 7 -104 -4 -112 -14 -11 -98 2 -108 16
-4 6 -6 29 -5 51 2 39 4 40 43 46 22 3 46 4 53 2 8 -1 17 -3 21 -3z"/>
<path d="M2205 1041 c3 -6 10 -9 15 -6 15 9 20 -30 11 -81 -10 -52 -7 -64 10
-47 5 5 9 39 7 74 -3 59 -5 64 -27 67 -15 2 -21 0 -16 -7z"/>
<path d="M2705 1040 c-3 -5 -5 -39 -4 -75 l2 -65 51 1 51 1 -39 8 c-46 9 -56
23 -54 77 1 41 2 42 47 51 l46 10 -47 1 c-26 0 -50 -3 -53 -9z"/>
<path d="M2554 887 c-3 -8 -4 -41 -2 -73 l3 -59 73 -3 72 -3 0 51 c0 27 -4 50
-10 50 -5 0 -10 -20 -10 -43 l0 -44 -44 -1 c-59 -3 -78 17 -74 72 3 39 5 41
42 47 43 7 76 2 76 -12 0 -5 4 -9 9 -9 5 0 8 8 7 18 -2 14 -15 18 -70 20 -50
2 -68 -1 -72 -11z"/>
<path d="M2905 1360 c-4 -6 13 -10 44 -10 28 0 51 5 51 10 0 6 -20 10 -44 10
-25 0 -48 -4 -51 -10z"/>
<path d="M1 1346 c3 -3 29 -6 57 -7 29 -1 52 -6 52 -11 0 -5 4 -6 10 -3 6 4
10 -16 10 -52 l0 -58 -65 0 c-36 0 -65 -3 -65 -7 0 -5 34 -8 75 -8 l76 0 -3
73 -3 72 -75 3 c-41 2 -72 1 -69 -2z"/>
<path d="M304 1336 c-3 -7 -4 -40 -2 -72 l3 -59 70 0 70 0 3 64 c2 45 -1 67
-10 72 -22 15 -128 11 -134 -5z m126 -60 c0 -29 -2 -55 -4 -57 -3 -3 -28 -2
-57 1 l-51 5 -2 52 -1 52 45 3 c67 4 70 2 70 -56z"/>
<path d="M602 1278 l3 -73 70 0 70 0 3 73 3 72 -76 0 -76 0 3 -72z m136 5 c2
-25 -1 -43 -7 -43 -6 0 -8 -6 -6 -12 4 -10 -9 -13 -45 -12 -28 1 -53 4 -57 7
-3 4 -6 28 -7 56 l-1 49 60 -2 60 -1 3 -42z"/>
<path d="M1802 1278 l3 -73 70 0 70 0 3 73 3 72 -76 0 -76 0 3 -72z m136 5 c2
-25 -1 -43 -7 -43 -6 0 -8 -6 -6 -12 4 -10 -9 -13 -45 -12 -28 1 -53 4 -57 7
-3 4 -6 28 -7 56 l-1 49 60 -2 60 -1 3 -42z"/>
<path d="M901 1277 c1 -36 5 -65 8 -63 8 5 5 116 -3 124 -4 3 -6 -24 -5 -61z"/>
<path d="M1635 1328 c-11 -35 -9 -95 2 -95 9 0 13 17 13 54 0 51 -6 67 -15 41z"/>
<path d="M888 1142 c-77 -66 -81 -68 -388 -191 -337 -134 -350 -142 -390 -236
-43 -101 -81 -318 -95 -545 -3 -58 -8 -117 -11 -133 l-6 -27 821 0 c452 0 821
1 821 3 0 1 -9 20 -20 42 -29 56 -27 157 3 216 49 96 270 359 332 394 17 10
17 12 0 44 -34 67 -56 147 -62 226 l-6 80 -76 29 c-55 21 -100 48 -161 97 -72
59 -90 69 -124 69 -36 0 -47 -8 -147 -107 l-109 -107 -109 107 c-105 104 -109
107 -152 107 -40 -1 -52 -8 -121 -68z m147 28 c-3 -5 -2 -10 3 -10 4 0 46 -38
93 -85 94 -95 132 -119 163 -103 11 6 66 55 122 108 106 100 125 110 155 74 6
-8 15 -14 20 -14 4 0 29 -20 54 -44 26 -24 56 -48 68 -54 12 -5 48 -22 80 -36
53 -24 64 -37 58 -70 -1 -5 4 -34 10 -65 7 -31 14 -62 15 -69 1 -7 10 -35 20
-62 l18 -50 -41 -35 c-23 -19 -59 -59 -80 -88 -21 -28 -45 -59 -53 -68 -37
-40 -50 -61 -44 -71 4 -6 3 -8 -4 -4 -14 8 -97 -108 -118 -165 -10 -30 -14
-69 -12 -124 l3 -80 -760 0 -760 0 2 30 c3 71 23 293 28 320 3 17 14 74 26
128 11 53 17 102 13 109 -4 7 -3 8 4 4 7 -4 13 -2 13 3 3 21 5 27 28 73 26 51
56 77 116 97 36 12 98 38 150 61 11 5 45 18 75 28 30 11 54 24 53 30 -2 6 3 9
11 6 7 -3 55 11 107 31 52 20 106 41 121 47 15 6 39 21 54 34 71 66 135 107
192 123 2 1 0 -3 -3 -9z"/>
<path d="M154 1187 c-3 -8 -4 -41 -2 -73 l3 -59 73 -3 73 -3 -3 73 -3 73 -68
3 c-51 2 -69 -1 -73 -11z m121 -5 c13 -9 13 -105 0 -114 -14 -11 -98 2 -108
16 -4 6 -6 29 -5 51 3 43 -1 41 93 53 6 1 15 -2 20 -6z"/>
<path d="M450 1125 l0 -75 75 0 76 0 -3 73 -3 72 -72 3 -73 3 0 -76z m127 52
c9 -9 9 -107 0 -110 -5 -1 -32 0 -60 3 -57 6 -65 18 -53 84 6 30 7 31 56 30
28 -1 53 -4 57 -7z"/>
<path d="M757 1193 c-4 -3 -7 -27 -7 -52 1 -37 3 -43 11 -28 6 10 8 29 5 43
-4 13 -3 24 1 25 5 0 34 1 65 1 31 1 55 5 52 10 -6 10 -118 11 -127 1z"/>
<path d="M1157 1189 c23 -7 31 -14 28 -27 -2 -11 1 -25 6 -33 6 -9 9 0 9 29
l0 42 -37 -1 -38 -1 32 -9z"/>
<path d="M1357 1193 c-11 -10 -8 -55 3 -48 5 3 7 12 4 19 -3 9 5 18 23 24 l28
10 -26 1 c-14 1 -29 -2 -32 -6z"/>
<path d="M1654 1192 c3 -6 30 -10 60 -10 63 1 76 -5 69 -31 -3 -11 0 -28 6
-38 9 -14 11 -8 9 32 l-3 50 -73 3 c-44 2 -71 -1 -68 -6z"/>
<path d="M1957 1193 c-10 -9 -9 -133 1 -133 4 0 6 27 6 59 -1 60 11 81 38 64
7 -3 8 -1 4 5 -8 13 -39 16 -49 5z"/>
<path d="M1 1046 c2 -2 31 -6 64 -8 33 -1 62 -6 65 -10 3 -3 3 -31 2 -61 l-4
-54 -61 -2 c-89 -3 -84 -11 7 -11 l77 0 -2 75 -2 75 -75 0 c-41 0 -73 -2 -71
-4z"/>
<path d="M307 1044 c-4 -4 -7 -34 -7 -67 0 -73 9 -72 11 0 2 51 3 52 38 57 58
9 94 -3 84 -29 -3 -8 0 -15 7 -15 6 0 10 11 8 28 -3 26 -5 27 -68 30 -36 2
-69 0 -73 -4z"/>
<path d="M1905 1040 c-3 -5 0 -7 9 -4 20 8 30 -33 23 -93 -3 -28 -1 -40 4 -32
10 16 12 100 3 123 -7 18 -30 21 -39 6z"/>
<path d="M157 893 c-4 -3 -7 -16 -7 -27 0 -12 3 -16 8 -10 4 6 14 14 22 17 11
4 10 6 -5 8 -11 1 0 5 25 9 l45 7 -41 1 c-22 1 -44 -1 -47 -5z"/>
<path d="M0 740 c0 -5 13 -10 29 -10 17 0 33 5 36 10 4 6 -8 10 -29 10 -20 0
-36 -4 -36 -10z"/>
<path d="M2908 593 c17 -2 47 -2 65 0 17 2 3 4 -33 4 -36 0 -50 -2 -32 -4z"/>
<path d="M2859 588 c-6 -27 -8 -91 -2 -85 7 8 14 87 6 87 -1 0 -3 -1 -4 -2z"/>
<path d="M2850 470 c0 -18 7 -20 75 -20 43 0 75 4 75 10 0 6 -28 10 -65 10
-37 0 -65 4 -65 10 0 6 -4 10 -10 10 -5 0 -10 -9 -10 -20z"/>
<path d="M2707 444 c-4 -4 -7 -38 -7 -76 l0 -69 73 3 72 3 0 70 0 70 -65 3
c-36 2 -69 0 -73 -4z m126 -63 c3 -30 4 -57 1 -60 -5 -6 -107 -2 -113 5 -6 6
-2 94 5 106 3 5 27 8 54 7 l48 -2 5 -56z"/>
<path d="M2530 430 c-12 -8 -12 -10 -1 -10 9 0 12 -8 9 -25 -3 -14 -1 -28 3
-31 5 -3 9 13 9 35 0 23 -1 41 -2 41 -2 0 -10 -5 -18 -10z"/>
<path d="M2308 343 c-11 -30 -59 -100 -128 -186 -60 -76 -110 -140 -110 -142
0 -3 106 -5 235 -5 129 0 235 1 235 3 0 1 -7 76 -15 167 -8 91 -15 170 -15
176 0 6 -27 14 -62 17 -35 3 -76 9 -93 12 -29 6 -31 4 -47 -42z m156 -23 c5
-5 14 -65 20 -134 9 -104 9 -127 -2 -131 -23 -9 -311 -5 -316 4 -5 7 25 55 44
71 18 14 115 149 128 178 16 33 17 33 67 27 27 -4 54 -11 59 -15z"/>
<path d="M2650 291 c0 -6 6 -8 14 -5 17 7 30 -45 22 -86 -2 -14 -5 -28 -5 -32
-1 -3 -24 -6 -52 -6 -28 -1 -54 -4 -57 -7 -4 -3 23 -5 58 -3 l65 3 0 70 c0 65
-2 70 -22 73 -13 2 -23 -1 -23 -7z"/>
<path d="M2857 293 c-9 -8 -9 -106 -1 -127 5 -12 21 -16 75 -16 89 0 90 18 2
22 l-68 3 0 55 0 55 70 6 70 5 -71 2 c-39 1 -74 -1 -77 -5z"/>
<path d="M2704 136 c-3 -7 -3 -42 -1 -77 l3 -64 2 67 2 66 51 4 c28 1 55 0 61
-3 5 -4 10 -34 10 -68 0 -33 4 -61 9 -61 5 0 9 31 9 69 0 79 -2 81 -86 81 -37
0 -56 -4 -60 -14z"/>
</g>
</svg>
